<?xml version="1.0" encoding="utf-8"?>
<!-- Generator: Adobe Illustrator 16.0.0, SVG Export Plug-In . SVG Version: 6.00 Build 0)  -->
<!DOCTYPE svg PUBLIC "-//W3C//DTD SVG 1.1//EN" "http://www.w3.org/Graphics/SVG/1.1/DTD/svg11.dtd">
<svg version="1.1" id="层_1" xmlns="http://www.w3.org/2000/svg" xmlns:xlink="http://www.w3.org/1999/xlink" x="0px" y="0px"
	 width="100px" height="62.725px" viewBox="0 0 100 62.725" enable-background="new 0 0 100 62.725" xml:space="preserve">
<path fill="#EA6F5A" d="M61.611,30.813c-3.91-10.684-8.473-23.201-9.605-26.158c1.559-0.665,4.113-0.917,6.59-1.33l0.24-1.604H35.35
	l0.414,1.604c1.408,0.253,5.684,0.825,8.08,1.33c-1.813,7.668-13.768,37.207-14.752,40.018h-0.16
	c-1.49-3.531-10.639-38.274-11.463-41.896c1.982-0.333,6.35-0.905,7.508-1.158l0.4-1.616H0l0.332,1.616
	c2.477,0.412,4.207,0.665,6.18,1.157c4.447,9.813,16.322,52.568,19.199,59.502c4.447-10.234,16.896-42.263,19.693-49.357
	c2.396,6.854,17.48,44.566,19.705,49.357c0.217-0.768,1.719-5.316,3.816-11.601L61.611,30.813z M90.506,12.025
	c0-1.811,0.082-6.693,0.412-9.25c2.891-0.333,7.43-0.997,8.84-1.158l0.24-1.616H69.357l0.332,1.616
	c2.385,0.16,8.908,0.825,10.891,1.157c0.664,4.287,0.744,6.202,0.744,9.331v5.697c0,18.489-0.744,25.287-1.982,29.573
	c-0.904,3.382-2.314,7.921-8.746,14.774l1.73,0.573c8.918-6.763,12.174-10.477,14.26-14.03c3.588-6.108,3.92-9.822,3.92-16.667
	V16.402V12.025L90.506,12.025z"/>
</svg>
